<svg width="120" height="40" viewBox="0 0 120 40" fill="none" xmlns="http://www.w3.org/2000/svg">
  <path d="M24.6 10.4c-1.4 1.7-3.6 2.9-5.8 2.7-.3-2.3.8-4.7 2.1-6.2 1.4-1.6 3.8-2.8 5.7-2.9.2 2.4-.7 4.7-2 6.4zm2 3.3c-3.2-.2-5.9 1.8-7.4 1.8-1.5 0-3.9-1.7-6.4-1.7-3.3 0-6.3 1.9-8 4.9-3.4 5.9-.9 14.6 2.4 19.4 1.6 2.4 3.6 5 6.1 4.9 2.4-.1 3.4-1.6 6.3-1.6 3 0 3.8 1.6 6.4 1.5 2.6-.1 4.4-2.4 6-4.8 1.9-2.7 2.7-5.4 2.7-5.5-.1 0-5.2-2-5.3-8-.1-5 4.1-7.4 4.3-7.6-2.4-3.5-6-3.9-7.1-4.3z" fill="white"/>
  <text x="42" y="28" font-family="SF Pro Display, -apple-system, sans-serif" font-size="18" font-weight="500" fill="white">Apple</text>
</svg>
