<svg width="115" height="40" viewBox="0 0 115 40" fill="none" xmlns="http://www.w3.org/2000/svg">
<path fill-rule="evenodd" clip-rule="evenodd" d="M15.6081 0.667875C17.1616 -0.222625 19.0757 -0.222625 20.6293 0.667875L33.7268 8.17532C35.2803 9.06583 36.2374 10.7115 36.2374 12.4926V27.5074C36.2374 29.2885 35.2803 30.9342 33.7268 31.8247L20.6293 39.3321C19.0757 40.2226 17.1616 40.2226 15.6081 39.3321L2.5106 31.8247C0.957033 30.9342 0 29.2885 0 27.5074V12.4926C0 10.7115 0.957033 9.06583 2.5106 8.17532L15.6081 0.667875ZM0.836867 12.6845C0.836867 11.5373 1.64807 11.0724 2.64874 11.6459L15.5536 19.043C16.5543 19.6166 17.3655 21.0115 17.3655 22.1586V36.9527C17.3655 38.0999 16.5543 38.5649 15.5536 37.9913L2.64874 30.5943C1.64807 30.0207 0.836867 28.6257 0.836867 27.4786V12.6845ZM21.3266 30.3327L25.09 28.1755C25.09 28.8627 25.2877 29.2807 25.6832 29.4294C26.0787 29.5711 26.5947 29.4595 27.2312 29.0947C27.8183 28.7582 28.2941 28.3438 28.6587 27.8514C29.0233 27.359 29.2056 26.8826 29.2056 26.4222C29.2056 26.0396 29.0418 25.8218 28.7144 25.7687C28.393 25.7049 27.8801 25.7793 27.1756 25.9918C25.8285 26.4522 24.7718 26.7215 24.0055 26.7994C23.2392 26.8773 22.6583 26.7569 22.2628 26.4381C21.8426 26.1122 21.6325 25.5136 21.6325 24.6422C21.6325 23.0908 22.1516 21.6278 23.1897 20.2535C24.2465 18.8756 25.606 17.7102 27.2683 16.7574C28.2262 16.2084 29.1036 15.9144 29.9008 15.8754C30.7042 15.8329 31.3499 16.0755 31.8381 16.6033C32.3264 17.1311 32.5704 17.9121 32.5704 18.9465L29.0017 20.992C29.0017 20.4182 28.8225 20.0569 28.4641 19.9082C28.1056 19.7594 27.6391 19.8497 27.0644 20.1791C26.5329 20.4838 26.1004 20.8521 25.7666 21.2843C25.4391 21.7129 25.2754 22.1291 25.2754 22.5329C25.2754 22.9509 25.433 23.1935 25.7481 23.2608C26.0633 23.3281 26.5453 23.2502 27.1942 23.027C29.184 22.3469 30.6424 22.1025 31.5693 22.2938C32.5025 22.4815 32.969 23.174 32.969 24.3712C32.969 25.1363 32.8207 25.9121 32.5241 26.6984C32.2275 27.4777 31.8165 28.2127 31.2913 28.9034C30.7721 29.5835 30.1727 30.2211 29.493 30.8162C28.8194 31.4006 28.0902 31.9178 27.3054 32.3677C26.6936 32.7183 26.1065 32.9946 25.5442 33.1965C24.988 33.402 24.4473 33.5206 23.922 33.5525C23.4029 33.5738 22.9549 33.487 22.578 33.2922C22.201 33.0974 21.8982 32.7537 21.6695 32.2614C21.4409 31.762 21.3266 31.119 21.3266 30.3327ZM14.3914 28.9901V20.6802L11.0544 18.7674V27.0773C11.0544 28.3171 10.8938 29.153 10.5724 29.5852C10.2511 30.0102 9.68872 29.9925 8.88537 29.532C8.09436 29.0786 7.5413 28.457 7.22615 27.6671C6.91713 26.8736 6.76264 25.857 6.76264 24.6173V16.3074L3.39785 14.3787V22.6886C3.39785 27.3926 5.2332 30.7966 8.90389 32.9006C10.7454 33.9562 12.1204 34.1421 13.0288 33.4585C13.9372 32.7748 14.3914 31.2854 14.3914 28.9901Z" fill="white"/>
<path d="M54.6221 12.8711V21.1196C54.6221 23.4049 54.1298 25.1453 53.1453 26.3408C52.1608 27.5291 50.6628 28.1234 48.6512 28.1234C44.6636 28.1234 42.6698 25.7888 42.6698 21.1196V12.8711H45.3259V21.1196C45.3259 22.4416 45.5596 23.5456 46.0271 24.4316C46.4803 25.2895 47.348 25.7184 48.63 25.7184C49.9262 25.7184 50.8115 25.2895 51.2861 24.4316C51.7536 23.5456 51.9873 22.4416 51.9873 21.1196V12.8711H54.6221Z" fill="white"/>
<path d="M55.6953 16.9953H58.2025V18.2083H58.4152C58.8684 17.7161 59.3855 17.3364 59.9664 17.0692C60.5467 16.802 61.1562 16.6684 61.7935 16.6684C62.6857 16.6684 63.5078 16.925 64.2586 17.4383C65.0162 17.9447 65.6219 18.6408 66.0752 19.5268C66.5142 20.4199 66.7337 21.3762 66.7337 22.3958C66.7337 23.4225 66.5105 24.3753 66.0646 25.2543C65.6251 26.1263 65.0268 26.8189 64.2691 27.3322C63.5109 27.8456 62.6857 28.1023 61.7935 28.1023C61.1562 28.1023 60.5436 27.9651 59.9553 27.6909C59.3675 27.4166 58.8473 27.0334 58.3935 26.5411H58.2025V31.3616H55.6953V16.9953ZM58.2025 22.3958C58.2025 23.4577 58.4896 24.3578 59.0631 25.0961C59.6366 25.8274 60.3484 26.1931 61.1984 26.1931C62.013 26.1931 62.7105 25.8239 63.2915 25.0855C63.8724 24.3472 64.1625 23.4506 64.1625 22.3958C64.1625 21.3199 63.8724 20.4093 63.2915 19.664C62.7105 18.9186 62.013 18.5459 61.1984 18.5459C60.3484 18.5459 59.6366 18.9186 59.0631 19.664C58.4896 20.4023 58.2025 21.3129 58.2025 22.3958Z" fill="white"/>
<path d="M67.8068 22.8494H70.5906C70.5906 23.7706 70.895 24.4843 71.5039 24.9906C72.1201 25.4899 72.9063 25.7395 73.8629 25.7395C74.7129 25.7395 75.4173 25.5637 75.9771 25.2121C76.5363 24.8535 76.816 24.3823 76.816 23.7987C76.816 23.3417 76.625 22.9725 76.2424 22.6912C75.8599 22.4099 75.1803 22.0794 74.2027 21.6997C73.9051 21.6083 73.7104 21.538 73.6186 21.4887C72.2726 21.0457 71.2564 20.6555 70.5689 20.3179C69.8893 19.9733 69.3259 19.5338 68.88 18.9994C68.384 18.4439 68.1361 17.7337 68.1361 16.8688C68.1361 15.4694 68.6637 14.4041 69.7195 13.6727C70.7816 12.9344 72.1449 12.5652 73.8096 12.5652C74.7941 12.5652 75.69 12.7586 76.4973 13.1453C77.3051 13.5251 77.953 14.0982 78.4416 14.8647C78.9375 15.6241 79.1855 16.5066 79.1855 17.5122H76.4867C76.4867 16.7739 76.2319 16.155 75.7217 15.6557C75.212 15.1495 74.4966 14.8963 73.5759 14.8963C72.7754 14.8963 72.1238 15.0581 71.621 15.3815C71.125 15.705 70.8771 16.148 70.8771 16.7105C70.8771 17.2942 71.1039 17.7689 71.5572 18.1345C72.0178 18.5002 72.6694 18.8342 73.512 19.1366C73.6539 19.1928 73.9373 19.2913 74.362 19.4319C75.4173 19.8116 76.3596 20.1949 77.1879 20.5816C77.8965 20.9262 78.4701 21.3587 78.9091 21.879C79.3697 22.4205 79.5997 23.0955 79.5997 23.9042C79.5997 24.755 79.3343 25.504 78.803 26.1509C78.2791 26.7908 77.5847 27.2725 76.7205 27.596C75.8636 27.9194 74.9107 28.0811 73.8629 28.0811C73.2535 28.0811 72.6657 28.0214 72.099 27.9018C71.5398 27.7893 70.9942 27.5995 70.4629 27.3322C69.9389 27.065 69.482 26.7345 69.0921 26.3408C68.7027 25.9399 68.3914 25.4407 68.1577 24.8429C67.924 24.2453 67.8068 23.5807 67.8068 22.8494Z" fill="white"/>
<path d="M81.4485 24.5371V18.8939H79.8123V16.9953H81.4485V13.8204H83.9452V16.9953H85.5386V18.8939H83.9452V24.5371C83.9452 25.4442 84.2955 25.8977 84.9967 25.8977C85.1672 25.8977 85.3476 25.8767 85.5386 25.8344V27.8807C85.0996 27.9651 84.6997 28.0073 84.3383 28.0073C82.4119 28.0073 81.4485 26.8506 81.4485 24.5371Z" fill="white"/>
<path d="M86.0805 22.3958C86.0805 21.2918 86.272 20.3179 86.6545 19.4741C87.0439 18.6302 87.6496 17.9552 88.4711 17.4489C89.2926 16.9426 90.2878 16.6895 91.4564 16.6895C92.6251 16.6895 93.6202 16.9426 94.4417 17.4489C95.2637 17.9552 95.8658 18.6302 96.2483 19.4741C96.6377 20.3179 96.8324 21.2918 96.8324 22.3958C96.8324 23.2186 96.7189 23.9781 96.4926 24.6742C96.2657 25.3633 95.9365 25.9681 95.5043 26.4884C95.0722 27.0017 94.5092 27.4026 93.8149 27.6909C93.1211 27.9792 92.3349 28.1234 91.4564 28.1234C90.5785 28.1234 89.7918 27.9792 89.098 27.6909C88.4036 27.4026 87.8406 27.0017 87.4085 26.4884C86.9764 25.9681 86.6471 25.3633 86.4208 24.6742C86.1939 23.9781 86.0805 23.2186 86.0805 22.3958ZM88.6516 22.3958C88.6516 23.4717 88.8816 24.3929 89.3423 25.1594C89.7955 25.9118 90.5004 26.288 91.4564 26.288C92.4125 26.288 93.1174 25.9118 93.5706 25.1594C94.0312 24.3929 94.2613 23.4717 94.2613 22.3958C94.2613 21.334 94.0312 20.4199 93.5706 19.6534C93.1174 18.901 92.4125 18.5248 91.4564 18.5248C90.5004 18.5248 89.7955 18.901 89.3423 19.6534C88.8816 20.4199 88.6516 21.334 88.6516 22.3958Z" fill="white"/>
<path d="M97.9161 27.7963V16.9953H99.9242L100.402 18.4404H100.657C100.919 17.9903 101.298 17.6106 101.794 17.3012C102.29 16.9848 102.81 16.8265 103.356 16.8265C103.526 16.8265 103.706 16.8477 103.898 16.8899V19.0311C103.678 18.9818 103.483 18.9572 103.313 18.9572C102.612 18.9572 101.953 19.1963 101.337 19.6745C100.728 20.1526 100.423 20.6941 100.423 21.2989V27.7963H97.9161Z" fill="white"/>
<path d="M106.883 21.2778H112.323C112.174 20.4199 111.873 19.7484 111.42 19.2631C110.966 18.7709 110.361 18.5248 109.603 18.5248C108.859 18.5248 108.257 18.7744 107.797 19.2737C107.336 19.7659 107.032 20.4339 106.883 21.2778ZM104.227 22.3958C104.227 21.5872 104.34 20.8383 104.567 20.1491C104.801 19.46 105.137 18.8588 105.576 18.3454C106.015 17.8251 106.579 17.4208 107.266 17.1325C107.959 16.8371 108.739 16.6895 109.603 16.6895C110.474 16.6895 111.253 16.8336 111.94 17.1219C112.627 17.4102 113.19 17.811 113.629 18.3244C114.069 18.8307 114.401 19.4248 114.628 20.107C114.862 20.789 114.986 21.538 115 22.3537V23.0604H106.819C106.918 24.0378 107.205 24.8218 107.68 25.4125C108.154 25.9962 108.795 26.288 109.603 26.288C110.835 26.288 111.678 25.6375 112.131 24.3367H114.756C114.458 25.5251 113.863 26.4532 112.971 27.1213C112.085 27.7893 110.963 28.1234 109.603 28.1234C107.889 28.1234 106.564 27.5924 105.629 26.5306C104.694 25.4688 104.227 24.0905 104.227 22.3958Z" fill="white"/>
</svg>
