<svg width="24" height="24" viewBox="0 0 24 24" fill="none" xmlns="http://www.w3.org/2000/svg">
<path d="M18.0961 15.5285C16.9951 14.5983 15.8746 14.0331 14.7874 14.9633L14.1368 15.523C13.6614 15.9318 12.7772 17.836 9.36009 13.9535C5.94297 10.0793 7.97545 9.47562 8.45368 9.07228L9.10707 8.50979C10.1886 7.57964 9.77993 6.40803 8.99864 5.20075L8.52875 4.47089C7.74467 3.2691 6.88831 2.47888 5.80395 3.40629L5.21729 3.9139C4.73628 4.25687 3.39612 5.3791 3.07082 7.5083C2.67878 10.0628 3.91606 12.9904 6.74373 16.2007C9.56862 19.4137 12.3379 21.0271 14.957 20.9997C17.1341 20.975 18.452 19.8226 18.8635 19.4028L19.4502 18.8951C20.5345 17.9677 19.8617 17.0211 18.7579 16.091L18.0961 15.5285Z" fill="white"/>
</svg>
