<svg width="23" height="23" viewBox="0 0 23 23" fill="none" xmlns="http://www.w3.org/2000/svg">
<path d="M0 9.45441C0 8.15562 0.246566 6.93323 0.739698 5.78724C1.23283 4.64126 1.91859 3.63661 2.79698 2.77329C3.67538 1.90234 4.68861 1.22239 5.83668 0.733433C6.99246 0.244478 8.22915 0 9.54673 0C10.8643 0 12.0972 0.244478 13.2452 0.733433C14.401 1.22239 15.4181 1.90234 16.2965 2.77329C17.1749 3.63661 17.8606 4.64126 18.3538 5.78724C18.8469 6.93323 19.0935 8.15562 19.0935 9.45441C19.0935 10.4323 18.9471 11.3644 18.6543 12.2506C18.3692 13.1369 17.9685 13.9505 17.4523 14.6916L22.4337 19.6537C22.6186 19.8447 22.7573 20.0548 22.8497 20.284C22.9499 20.5208 23 20.773 23 21.0404C23 21.4071 22.9152 21.7394 22.7457 22.0374C22.5762 22.3353 22.3451 22.5683 22.0523 22.7364C21.7595 22.9121 21.4204 23 21.0352 23C20.7732 23 20.5189 22.9542 20.2724 22.8625C20.0258 22.7708 19.8062 22.6295 19.6136 22.4385L14.5859 17.4534C13.8616 17.9118 13.0719 18.2747 12.2166 18.5421C11.369 18.8019 10.4791 18.9317 9.54673 18.9317C8.22915 18.9317 6.99246 18.6873 5.83668 18.1983C4.68861 17.7094 3.67538 17.0294 2.79698 16.1584C1.91859 15.2875 1.23283 14.279 0.739698 13.133C0.246566 11.987 0 10.7608 0 9.45441ZM2.72764 9.45441C2.72764 10.3941 2.90101 11.2727 3.24774 12.0902C3.60218 12.9077 4.09146 13.6258 4.71558 14.2446C5.3474 14.8635 6.07554 15.3486 6.9 15.7001C7.72446 16.0515 8.6067 16.2272 9.54673 16.2272C10.4868 16.2272 11.369 16.0515 12.1935 15.7001C13.0179 15.3486 13.7422 14.8635 14.3663 14.2446C14.9905 13.6258 15.4797 12.9077 15.8342 12.0902C16.1886 11.2727 16.3658 10.3941 16.3658 9.45441C16.3658 8.52234 16.1886 7.65139 15.8342 6.84155C15.4797 6.02408 14.9905 5.30593 14.3663 4.6871C13.7422 4.06062 13.0179 3.57167 12.1935 3.22023C11.369 2.86879 10.4868 2.69307 9.54673 2.69307C8.6067 2.69307 7.72446 2.86879 6.9 3.22023C6.07554 3.57167 5.3474 4.06062 4.71558 4.6871C4.09146 5.30593 3.60218 6.02408 3.24774 6.84155C2.90101 7.65139 2.72764 8.52234 2.72764 9.45441Z" fill="white"/>
</svg>
