<svg width="24" height="24" viewBox="0 0 24 24" fill="none" xmlns="http://www.w3.org/2000/svg">
<path d="M21.0338 3.40842C20.3563 2.93994 19.5033 2.8698 18.7549 3.22228L2.85892 11.5021C1.66127 12.1262 1.73311 13.8301 2.96805 14.3787C3.24541 14.5018 3.49094 14.5972 3.67191 14.6412L5.5416 15.1304C6.14452 15.2877 6.78654 15.1592 7.28034 14.7833L15.4475 8.55004C15.7285 8.33423 16.1286 8.3684 16.3705 8.62737C16.6106 8.88634 16.6088 9.28469 16.3651 9.54276L10.375 15.8857C10.1594 16.1006 10.0612 16.374 10.0921 16.6536C10.1049 16.7696 10.1513 16.9585 10.2958 17.1275C10.3786 17.2012 10.4677 17.2705 10.5623 17.3352L11.1652 17.6499L17.9156 20.8277C19.0223 21.3484 20.3181 20.6335 20.4509 19.4286L21.9887 5.46309C22.0696 4.64572 21.7131 3.8787 21.0338 3.40842Z" fill="white"/>
</svg>
