<svg width="24" height="24" viewBox="0 0 24 24" fill="none" xmlns="http://www.w3.org/2000/svg">
<path d="M23.8706 17.4461C22.8905 15.65 20.3656 13.4918 19.3232 12.5527C19.038 12.2956 19.0074 11.8507 19.2671 11.5664C21.2563 9.38987 22.8474 6.88904 23.395 5.37787C23.6366 4.71032 23.1365 4.005 22.4317 4.005H20.3847C19.71 4.005 19.3151 4.25158 19.1269 4.64423C17.4736 8.09364 16.0555 9.58647 15.0627 10.459C14.5069 10.9477 13.6402 10.5428 13.6402 9.79918C13.6402 8.36632 13.6402 6.51416 13.6402 5.20071C13.6402 4.5637 13.1286 4.04832 12.4975 4.04832L8.75791 4.005C8.28719 4.005 8.01829 4.5476 8.30083 4.92802L8.91828 5.8305C9.15064 6.14317 9.27609 6.5236 9.27609 6.91403L9.27282 10.9782C9.27282 11.6852 8.43119 12.0307 7.93156 11.5353C6.24122 9.85916 4.77451 6.43641 4.24652 4.79973C4.09379 4.326 3.65798 4.00611 3.1638 4.005L1.14728 4C0.390746 4 -0.162338 4.73031 0.0432955 5.46562C1.88582 12.0507 5.66632 18.3152 12.4037 18.9944C13.0675 19.0611 13.6402 18.5168 13.6402 17.8432V15.7072C13.6402 15.0946 14.112 14.5681 14.7186 14.5526C14.7398 14.552 14.7611 14.552 14.7824 14.552C16.5644 14.552 18.5602 17.1928 19.2583 18.428C19.4591 18.7834 19.8343 19 20.2401 19H22.9526C23.7441 19 24.2519 18.1453 23.8706 17.4461Z" fill="white"/>
</svg>
