<svg width="24" height="24" viewBox="0 0 24 24" fill="none" xmlns="http://www.w3.org/2000/svg">
<path d="M11.9999 2.39844C6.6983 2.39844 2.3999 6.69684 2.3999 11.9984C2.3999 13.7994 2.90578 15.4785 3.76865 16.9188L2.48584 21.5984L7.26553 20.3438C8.66339 21.1385 10.2771 21.5984 11.9999 21.5984C17.3015 21.5984 21.5999 17.3 21.5999 11.9984C21.5999 6.69684 17.3015 2.39844 11.9999 2.39844ZM8.71396 7.52031C8.86996 7.52031 9.03025 7.51936 9.16865 7.52656C9.33985 7.53056 9.52619 7.5431 9.70459 7.9375C9.91659 8.4063 10.3782 9.58236 10.4374 9.70156C10.4966 9.82076 10.5386 9.96119 10.4562 10.1172C10.3778 10.2772 10.337 10.374 10.2218 10.5156C10.1026 10.6532 9.97196 10.8241 9.86396 10.9281C9.74476 11.0473 9.62168 11.178 9.75928 11.4156C9.89688 11.6532 10.3748 12.4321 11.0812 13.0609C11.9892 13.8721 12.7553 14.1214 12.9937 14.2406C13.2321 14.3598 13.3701 14.3413 13.5077 14.1813C13.6493 14.0253 14.1024 13.49 14.2624 13.2516C14.4184 13.0132 14.5777 13.0544 14.7937 13.1328C15.0129 13.2112 16.1818 13.7871 16.4202 13.9063C16.6586 14.0255 16.8149 14.0845 16.8749 14.1813C16.9365 14.2813 16.9366 14.7573 16.739 15.3125C16.5414 15.8669 15.571 16.403 15.1358 16.4406C14.6966 16.4814 14.2868 16.638 12.2812 15.8484C9.86195 14.8956 8.33629 12.4178 8.21709 12.2578C8.09789 12.1018 7.24834 10.9696 7.24834 9.80156C7.24834 8.62956 7.86283 8.05559 8.07803 7.81719C8.29723 7.57879 8.55396 7.52031 8.71396 7.52031Z" fill="white"/>
</svg>
